<mxfile host="app.diagrams.net" agent="Mozilla/5.0 (Windows NT 10.0; Win64; x64) AppleWebKit/537.36 (KHTML, like Gecko) Chrome/129.0.0.0 Safari/537.36" version="24.7.17">
  <diagram name="第 1 页" id="R8lSAh_ms-Js-fD9iYkR">
    <mxGraphModel dx="1434" dy="772" grid="1" gridSize="10" guides="1" tooltips="1" connect="1" arrows="1" fold="1" page="1" pageScale="1" pageWidth="827" pageHeight="1169" math="0" shadow="0">
      <root>
        <mxCell id="0" />
        <mxCell id="1" parent="0" />
        <mxCell id="D8Kj4qU78no7kVrKuZ1o-30" value="" style="rounded=1;whiteSpace=wrap;html=1;fillColor=#dae8fc;strokeColor=#6c8ebf;" parent="1" vertex="1">
          <mxGeometry x="80" y="1300" width="400" height="190" as="geometry" />
        </mxCell>
        <mxCell id="D8Kj4qU78no7kVrKuZ1o-2" value="" style="rounded=1;whiteSpace=wrap;html=1;fillColor=#dae8fc;strokeColor=#6c8ebf;imageWidth=24;arcSize=7;textShadow=0;strokeWidth=2;" parent="1" vertex="1">
          <mxGeometry x="80" y="800" width="400" height="490" as="geometry" />
        </mxCell>
        <mxCell id="D8Kj4qU78no7kVrKuZ1o-3" value="&lt;b&gt;&lt;font style=&quot;font-size: 18px;&quot;&gt;JVM内存&lt;/font&gt;&lt;/b&gt;" style="text;html=1;align=center;verticalAlign=middle;whiteSpace=wrap;rounded=0;" parent="1" vertex="1">
          <mxGeometry x="240" y="800" width="80" height="30" as="geometry" />
        </mxCell>
        <mxCell id="D8Kj4qU78no7kVrKuZ1o-17" value="" style="rounded=0;whiteSpace=wrap;html=1;fillColor=#d5e8d4;strokeColor=#82b366;strokeWidth=2;dashed=1;dashPattern=8 8;" parent="1" vertex="1">
          <mxGeometry x="100" y="840" width="360" height="260" as="geometry" />
        </mxCell>
        <mxCell id="D8Kj4qU78no7kVrKuZ1o-4" value="" style="rounded=1;whiteSpace=wrap;html=1;" parent="1" vertex="1">
          <mxGeometry x="110" y="850" width="150" height="210" as="geometry" />
        </mxCell>
        <mxCell id="D8Kj4qU78no7kVrKuZ1o-5" value="&lt;span style=&quot;font-size: 14px;&quot;&gt;&lt;b&gt;线程1&lt;/b&gt;&lt;/span&gt;" style="text;html=1;align=center;verticalAlign=middle;whiteSpace=wrap;rounded=0;" parent="1" vertex="1">
          <mxGeometry x="110" y="850" width="80" height="30" as="geometry" />
        </mxCell>
        <mxCell id="D8Kj4qU78no7kVrKuZ1o-8" value="&lt;b&gt;&lt;font&gt;虚拟机栈&lt;/font&gt;&lt;/b&gt;" style="rounded=1;whiteSpace=wrap;html=1;fillColor=#1ba1e2;fontColor=#FFFFFF;strokeColor=#006EAF;" parent="1" vertex="1">
          <mxGeometry x="125" y="890" width="120" height="40" as="geometry" />
        </mxCell>
        <mxCell id="D8Kj4qU78no7kVrKuZ1o-9" value="&lt;b&gt;本地方法栈&lt;/b&gt;" style="rounded=1;whiteSpace=wrap;html=1;fillColor=#fa6800;fontColor=#FFFFFF;strokeColor=#C73500;" parent="1" vertex="1">
          <mxGeometry x="125" y="945" width="120" height="40" as="geometry" />
        </mxCell>
        <mxCell id="D8Kj4qU78no7kVrKuZ1o-10" value="&lt;b&gt;程序计数器&lt;/b&gt;" style="rounded=1;whiteSpace=wrap;html=1;fillColor=#e3c800;fontColor=#FFFFFF;strokeColor=#B09500;" parent="1" vertex="1">
          <mxGeometry x="125" y="1000" width="120" height="40" as="geometry" />
        </mxCell>
        <mxCell id="D8Kj4qU78no7kVrKuZ1o-11" value="" style="rounded=1;whiteSpace=wrap;html=1;" parent="1" vertex="1">
          <mxGeometry x="300" y="850" width="150" height="210" as="geometry" />
        </mxCell>
        <mxCell id="D8Kj4qU78no7kVrKuZ1o-12" value="&lt;span style=&quot;font-size: 14px;&quot;&gt;&lt;b&gt;线程2&lt;/b&gt;&lt;/span&gt;" style="text;html=1;align=center;verticalAlign=middle;whiteSpace=wrap;rounded=0;" parent="1" vertex="1">
          <mxGeometry x="300" y="850" width="80" height="30" as="geometry" />
        </mxCell>
        <mxCell id="D8Kj4qU78no7kVrKuZ1o-13" value="&lt;b&gt;虚拟机栈&lt;/b&gt;" style="rounded=1;whiteSpace=wrap;html=1;fillColor=#1ba1e2;fontColor=#FFFFFF;strokeColor=#006EAF;" parent="1" vertex="1">
          <mxGeometry x="315" y="890" width="120" height="40" as="geometry" />
        </mxCell>
        <mxCell id="D8Kj4qU78no7kVrKuZ1o-14" value="&lt;b&gt;本地方法栈&lt;/b&gt;" style="rounded=1;whiteSpace=wrap;html=1;fillColor=#fa6800;fontColor=#FFFFFF;strokeColor=#C73500;" parent="1" vertex="1">
          <mxGeometry x="315" y="945" width="120" height="40" as="geometry" />
        </mxCell>
        <mxCell id="D8Kj4qU78no7kVrKuZ1o-15" value="&lt;b&gt;程序计数器&lt;/b&gt;" style="rounded=1;whiteSpace=wrap;html=1;fillColor=#e3c800;fontColor=#FFFFFF;strokeColor=#B09500;" parent="1" vertex="1">
          <mxGeometry x="315" y="1000" width="120" height="40" as="geometry" />
        </mxCell>
        <mxCell id="D8Kj4qU78no7kVrKuZ1o-18" value="&lt;span style=&quot;font-size: 14px;&quot;&gt;&lt;b&gt;&lt;font color=&quot;#ff3333&quot;&gt;线程私有&lt;/font&gt;&lt;/b&gt;&lt;/span&gt;" style="text;html=1;align=center;verticalAlign=middle;whiteSpace=wrap;rounded=0;" parent="1" vertex="1">
          <mxGeometry x="240" y="1070" width="80" height="30" as="geometry" />
        </mxCell>
        <mxCell id="D8Kj4qU78no7kVrKuZ1o-21" value="" style="rounded=0;whiteSpace=wrap;html=1;fillColor=#b0e3e6;strokeColor=#0e8088;dashed=1;strokeWidth=2;" parent="1" vertex="1">
          <mxGeometry x="130" y="1110" width="300" height="150" as="geometry" />
        </mxCell>
        <mxCell id="D8Kj4qU78no7kVrKuZ1o-20" value="&lt;span style=&quot;font-size: 14px;&quot;&gt;&lt;b&gt;&lt;font color=&quot;#ff3333&quot;&gt;线程共享&lt;/font&gt;&lt;/b&gt;&lt;/span&gt;" style="text;html=1;align=center;verticalAlign=middle;whiteSpace=wrap;rounded=0;" parent="1" vertex="1">
          <mxGeometry x="240" y="1110" width="80" height="30" as="geometry" />
        </mxCell>
        <mxCell id="D8Kj4qU78no7kVrKuZ1o-23" value="" style="rounded=1;whiteSpace=wrap;html=1;fillColor=#fad7ac;strokeColor=#b46504;" parent="1" vertex="1">
          <mxGeometry x="115" y="1351" width="150" height="120" as="geometry" />
        </mxCell>
        <mxCell id="D8Kj4qU78no7kVrKuZ1o-25" value="" style="rounded=1;whiteSpace=wrap;html=1;fillColor=#bac8d3;strokeColor=#23445d;" parent="1" vertex="1">
          <mxGeometry x="300" y="1380" width="150" height="60" as="geometry" />
        </mxCell>
        <mxCell id="D8Kj4qU78no7kVrKuZ1o-26" value="" style="rounded=1;whiteSpace=wrap;html=1;fillColor=#fad7ac;strokeColor=#b46504;" parent="1" vertex="1">
          <mxGeometry x="100" y="1340" width="180" height="140" as="geometry" />
        </mxCell>
        <mxCell id="D8Kj4qU78no7kVrKuZ1o-27" value="&lt;span style=&quot;font-size: 14px;&quot;&gt;&lt;b&gt;元空间&lt;/b&gt;&lt;/span&gt;" style="text;html=1;align=center;verticalAlign=middle;whiteSpace=wrap;rounded=0;" parent="1" vertex="1">
          <mxGeometry x="150" y="1340" width="80" height="30" as="geometry" />
        </mxCell>
        <mxCell id="D8Kj4qU78no7kVrKuZ1o-28" value="&lt;span style=&quot;font-size: 14px;&quot;&gt;&lt;b&gt;主存&lt;/b&gt;&lt;/span&gt;" style="text;html=1;align=center;verticalAlign=middle;whiteSpace=wrap;rounded=0;" parent="1" vertex="1">
          <mxGeometry x="335" y="1395" width="80" height="30" as="geometry" />
        </mxCell>
        <mxCell id="D8Kj4qU78no7kVrKuZ1o-33" value="" style="group;fillColor=none;strokeColor=none;" parent="1" vertex="1" connectable="0">
          <mxGeometry x="140" y="1140" width="280" height="111" as="geometry" />
        </mxCell>
        <mxCell id="D8Kj4qU78no7kVrKuZ1o-29" value="" style="rounded=1;whiteSpace=wrap;html=1;fillColor=#647687;strokeColor=#314354;fontColor=#ffffff;movable=0;resizable=0;rotatable=0;deletable=0;editable=0;locked=1;connectable=0;" parent="D8Kj4qU78no7kVrKuZ1o-33" vertex="1">
          <mxGeometry width="280" height="110" as="geometry" />
        </mxCell>
        <mxCell id="D8Kj4qU78no7kVrKuZ1o-31" value="&lt;span style=&quot;font-size: 14px;&quot;&gt;&lt;b&gt;&lt;font color=&quot;#ffffff&quot;&gt;堆&lt;/font&gt;&lt;/b&gt;&lt;/span&gt;" style="text;html=1;align=center;verticalAlign=middle;whiteSpace=wrap;rounded=0;movable=0;resizable=0;rotatable=0;deletable=0;editable=0;locked=1;connectable=0;" parent="D8Kj4qU78no7kVrKuZ1o-33" vertex="1">
          <mxGeometry width="80" height="30" as="geometry" />
        </mxCell>
        <mxCell id="D8Kj4qU78no7kVrKuZ1o-32" value="" style="rounded=1;whiteSpace=wrap;html=1;fillColor=#fad7ac;strokeColor=#b46504;" parent="D8Kj4qU78no7kVrKuZ1o-33" vertex="1">
          <mxGeometry x="27.5" y="30.5" width="225" height="50" as="geometry" />
        </mxCell>
        <mxCell id="D8Kj4qU78no7kVrKuZ1o-36" value="&lt;span style=&quot;font-size: 14px;&quot;&gt;&lt;b&gt;字符串常量池&lt;/b&gt;&lt;/span&gt;" style="text;html=1;align=center;verticalAlign=middle;whiteSpace=wrap;rounded=0;" parent="D8Kj4qU78no7kVrKuZ1o-33" vertex="1">
          <mxGeometry x="95" y="40" width="90" height="30" as="geometry" />
        </mxCell>
        <mxCell id="D8Kj4qU78no7kVrKuZ1o-34" value="&lt;b&gt;&lt;font style=&quot;font-size: 18px;&quot;&gt;本地内存&lt;/font&gt;&lt;/b&gt;" style="text;html=1;align=center;verticalAlign=middle;whiteSpace=wrap;rounded=0;" parent="1" vertex="1">
          <mxGeometry x="240" y="1300" width="80" height="30" as="geometry" />
        </mxCell>
        <mxCell id="D8Kj4qU78no7kVrKuZ1o-37" value="常量池&lt;div&gt;（非字符串）&lt;/div&gt;" style="rounded=1;whiteSpace=wrap;html=1;fillColor=#bac8d3;strokeColor=#FFFFFF;fontStyle=1" parent="1" vertex="1">
          <mxGeometry x="115" y="1425" width="150" height="45" as="geometry" />
        </mxCell>
        <mxCell id="D8Kj4qU78no7kVrKuZ1o-38" value="类的元信息&lt;div&gt;（类结构、方法）&lt;/div&gt;" style="rounded=1;whiteSpace=wrap;html=1;fillColor=#bac8d3;strokeColor=#FFFFFF;fontStyle=1" parent="1" vertex="1">
          <mxGeometry x="115" y="1370" width="150" height="50" as="geometry" />
        </mxCell>
        <mxCell id="PDrUq4Q-Q5MVaonfOiOn-1" value="" style="rounded=0;whiteSpace=wrap;html=1;fillColor=#647687;strokeColor=#314354;fontColor=#ffffff;" vertex="1" parent="1">
          <mxGeometry x="80" y="1694" width="570" height="486" as="geometry" />
        </mxCell>
        <mxCell id="PDrUq4Q-Q5MVaonfOiOn-2" value="" style="rounded=0;whiteSpace=wrap;html=1;fillColor=#1ba1e2;fontColor=#ffffff;strokeColor=#006EAF;" vertex="1" parent="1">
          <mxGeometry x="110" y="1724" width="230" height="216" as="geometry" />
        </mxCell>
        <mxCell id="PDrUq4Q-Q5MVaonfOiOn-4" value="" style="rounded=1;whiteSpace=wrap;html=1;" vertex="1" parent="1">
          <mxGeometry x="130" y="1780" width="190" height="40" as="geometry" />
        </mxCell>
        <mxCell id="PDrUq4Q-Q5MVaonfOiOn-9" style="edgeStyle=orthogonalEdgeStyle;rounded=0;orthogonalLoop=1;jettySize=auto;html=1;exitX=0.684;exitY=0.1;exitDx=0;exitDy=0;exitPerimeter=0;strokeWidth=3;" edge="1" parent="1" source="PDrUq4Q-Q5MVaonfOiOn-5" target="PDrUq4Q-Q5MVaonfOiOn-4">
          <mxGeometry relative="1" as="geometry">
            <Array as="points">
              <mxPoint x="260" y="1830" />
              <mxPoint x="260" y="1830" />
            </Array>
          </mxGeometry>
        </mxCell>
        <mxCell id="PDrUq4Q-Q5MVaonfOiOn-5" value="" style="rounded=1;whiteSpace=wrap;html=1;" vertex="1" parent="1">
          <mxGeometry x="130" y="1880" width="190" height="40" as="geometry" />
        </mxCell>
        <mxCell id="PDrUq4Q-Q5MVaonfOiOn-7" style="edgeStyle=orthogonalEdgeStyle;rounded=0;orthogonalLoop=1;jettySize=auto;html=1;exitX=0.25;exitY=1;exitDx=0;exitDy=0;strokeWidth=3;" edge="1" parent="1" source="PDrUq4Q-Q5MVaonfOiOn-4">
          <mxGeometry relative="1" as="geometry">
            <mxPoint x="161" y="1820" as="sourcePoint" />
            <mxPoint x="178" y="1880" as="targetPoint" />
            <Array as="points">
              <mxPoint x="178" y="1880" />
            </Array>
          </mxGeometry>
        </mxCell>
        <mxCell id="PDrUq4Q-Q5MVaonfOiOn-14" value="&lt;font size=&quot;1&quot; color=&quot;#ffffff&quot;&gt;&lt;b style=&quot;font-size: 14px;&quot;&gt;write&lt;/b&gt;&lt;/font&gt;" style="rounded=1;whiteSpace=wrap;html=1;fillColor=#f0a30a;fontColor=#000000;strokeColor=#BD7000;" vertex="1" parent="1">
          <mxGeometry x="125" y="1840" width="45" height="20" as="geometry" />
        </mxCell>
        <mxCell id="PDrUq4Q-Q5MVaonfOiOn-15" value="&lt;font size=&quot;1&quot; color=&quot;#ffffff&quot;&gt;&lt;b style=&quot;font-size: 14px;&quot;&gt;read&lt;/b&gt;&lt;/font&gt;" style="rounded=1;whiteSpace=wrap;html=1;fillColor=#f0a30a;fontColor=#000000;strokeColor=#BD7000;" vertex="1" parent="1">
          <mxGeometry x="270" y="1840" width="45" height="20" as="geometry" />
        </mxCell>
      </root>
    </mxGraphModel>
  </diagram>
</mxfile>
